<svg xmlns="http://www.w3.org/2000/svg" version="1.1" xmlns:xlink="http://www.w3.org/1999/xlink" xmlns:svgjs="http://svgjs.dev/svgjs" width="1440" height="560" preserveAspectRatio="none" viewBox="0 0 1440 560">
    <g mask="url(&quot;#SvgjsMask1144&quot;)" fill="none">
        <rect width="1440" height="560" x="0" y="0" fill="url(&quot;#SvgjsLinearGradient1145&quot;)"></rect>
        <path d="M-97.47 541.74L-97.47 541.74" stroke="rgba(48, 55, 161, 0.3)" stroke-width="1.5"></path>
        <path d="M-97.47 541.74L-39.17 650.62" stroke="rgba(48, 55, 161, 0.3)" stroke-width="1.5"></path>
        <path d="M-97.47 541.74L41.25 555.4" stroke="rgba(48, 55, 161, 0.3)" stroke-width="1.5"></path>
        <path d="M-97.47 541.74L81.04 684.55" stroke="rgba(48, 55, 161, 0.3)" stroke-width="1.5"></path>
        <path d="M-97.47 541.74L111.87 404.11" stroke="rgba(48, 55, 161, 0.3)" stroke-width="1.5"></path>
        <path d="M-39.17 650.62L-39.17 650.62" stroke="rgba(48, 55, 161, 0.3)" stroke-width="1.5"></path>
        <path d="M-39.17 650.62L41.25 555.4" stroke="rgba(48, 55, 161, 0.3)" stroke-width="1.5"></path>
        <path d="M-39.17 650.62L81.04 684.55" stroke="rgba(48, 55, 161, 0.3)" stroke-width="1.5"></path>
        <path d="M-39.17 650.62L111.87 404.11" stroke="rgba(48, 55, 161, 0.3)" stroke-width="1.5"></path>
        <path d="M-39.17 650.62L259.91 643.7" stroke="rgba(48, 55, 161, 0.3)" stroke-width="1.5"></path>
        <path d="M-39.17 650.62L260.7 549.4" stroke="rgba(48, 55, 161, 0.3)" stroke-width="1.5"></path>
        <path d="M111.87 404.11L111.87 404.11" stroke="rgba(48, 55, 161, 0.3)" stroke-width="1.5"></path>
        <path d="M111.87 404.11L195.48 399.54" stroke="rgba(48, 55, 161, 0.3)" stroke-width="1.5"></path>
        <path d="M111.87 404.11L41.25 555.4" stroke="rgba(48, 55, 161, 0.3)" stroke-width="1.5"></path>
        <path d="M41.25 555.4L41.25 555.4" stroke="rgba(48, 55, 161, 0.3)" stroke-width="1.5"></path>
        <path d="M41.25 555.4L81.04 684.55" stroke="rgba(48, 55, 161, 0.3)" stroke-width="1.5"></path>
        <path d="M41.25 555.4L195.48 399.54" stroke="rgba(48, 55, 161, 0.3)" stroke-width="1.5"></path>
        <path d="M41.25 555.4L260.7 549.4" stroke="rgba(48, 55, 161, 0.3)" stroke-width="1.5"></path>
        <path d="M81.04 684.55L81.04 684.55" stroke="rgba(48, 55, 161, 0.3)" stroke-width="1.5"></path>
        <path d="M195.48 399.54L195.48 399.54" stroke="rgba(48, 55, 161, 0.3)" stroke-width="1.5"></path>
        <path d="M195.48 399.54L260.7 549.4" stroke="rgba(48, 55, 161, 0.3)" stroke-width="1.5"></path>
        <path d="M195.48 399.54L401.76 350.18" stroke="rgba(48, 55, 161, 0.3)" stroke-width="1.5"></path>
        <path d="M260.7 549.4L260.7 549.4" stroke="rgba(48, 55, 161, 0.3)" stroke-width="1.5"></path>
        <path d="M260.7 549.4L259.91 643.7" stroke="rgba(48, 55, 161, 0.3)" stroke-width="1.5"></path>
        <path d="M260.7 549.4L386.6 535.78" stroke="rgba(48, 55, 161, 0.3)" stroke-width="1.5"></path>
        <path d="M260.7 549.4L111.87 404.11" stroke="rgba(48, 55, 161, 0.3)" stroke-width="1.5"></path>
        <path d="M260.7 549.4L81.04 684.55" stroke="rgba(48, 55, 161, 0.3)" stroke-width="1.5"></path>
        <path d="M259.91 643.7L259.91 643.7" stroke="rgba(48, 55, 161, 0.3)" stroke-width="1.5"></path>
        <path d="M259.91 643.7L386.6 535.78" stroke="rgba(48, 55, 161, 0.3)" stroke-width="1.5"></path>
        <path d="M259.91 643.7L81.04 684.55" stroke="rgba(48, 55, 161, 0.3)" stroke-width="1.5"></path>
        <path d="M401.76 350.18L401.76 350.18" stroke="rgba(48, 55, 161, 0.3)" stroke-width="1.5"></path>
        <path d="M401.76 350.18L548.81 380.86" stroke="rgba(48, 55, 161, 0.3)" stroke-width="1.5"></path>
        <path d="M401.76 350.18L386.6 535.78" stroke="rgba(48, 55, 161, 0.3)" stroke-width="1.5"></path>
        <path d="M401.76 350.18L492.49 528.81" stroke="rgba(48, 55, 161, 0.3)" stroke-width="1.5"></path>
        <path d="M386.6 535.78L386.6 535.78" stroke="rgba(48, 55, 161, 0.3)" stroke-width="1.5"></path>
        <path d="M386.6 535.78L492.49 528.81" stroke="rgba(48, 55, 161, 0.3)" stroke-width="1.5"></path>
        <path d="M548.81 380.86L548.81 380.86" stroke="rgba(48, 55, 161, 0.3)" stroke-width="1.5"></path>
        <path d="M548.81 380.86L689.46 386.83" stroke="rgba(48, 55, 161, 0.3)" stroke-width="1.5"></path>
        <path d="M548.81 380.86L492.49 528.81" stroke="rgba(48, 55, 161, 0.3)" stroke-width="1.5"></path>
        <path d="M548.81 380.86L678.07 561.71" stroke="rgba(48, 55, 161, 0.3)" stroke-width="1.5"></path>
        <path d="M548.81 380.86L386.6 535.78" stroke="rgba(48, 55, 161, 0.3)" stroke-width="1.5"></path>
        <path d="M548.81 380.86L794.28 358.28" stroke="rgba(48, 55, 161, 0.3)" stroke-width="1.5"></path>
        <path d="M492.49 528.81L492.49 528.81" stroke="rgba(48, 55, 161, 0.3)" stroke-width="1.5"></path>
        <path d="M558.14 700.75L558.14 700.75" stroke="rgba(48, 55, 161, 0.3)" stroke-width="1.5"></path>
        <path d="M558.14 700.75L670.91 665.04" stroke="rgba(48, 55, 161, 0.3)" stroke-width="1.5"></path>
        <path d="M558.14 700.75L678.07 561.71" stroke="rgba(48, 55, 161, 0.3)" stroke-width="1.5"></path>
        <path d="M558.14 700.75L492.49 528.81" stroke="rgba(48, 55, 161, 0.3)" stroke-width="1.5"></path>
        <path d="M689.46 386.83L689.46 386.83" stroke="rgba(48, 55, 161, 0.3)" stroke-width="1.5"></path>
        <path d="M689.46 386.83L794.28 358.28" stroke="rgba(48, 55, 161, 0.3)" stroke-width="1.5"></path>
        <path d="M678.07 561.71L678.07 561.71" stroke="rgba(48, 55, 161, 0.3)" stroke-width="1.5"></path>
        <path d="M678.07 561.71L670.91 665.04" stroke="rgba(48, 55, 161, 0.3)" stroke-width="1.5"></path>
        <path d="M678.07 561.71L808.18 517.75" stroke="rgba(48, 55, 161, 0.3)" stroke-width="1.5"></path>
        <path d="M678.07 561.71L689.46 386.83" stroke="rgba(48, 55, 161, 0.3)" stroke-width="1.5"></path>
        <path d="M670.91 665.04L670.91 665.04" stroke="rgba(48, 55, 161, 0.3)" stroke-width="1.5"></path>
        <path d="M670.91 665.04L857.55 693" stroke="rgba(48, 55, 161, 0.3)" stroke-width="1.5"></path>
        <path d="M862.08 96.96L862.08 96.96" stroke="rgba(48, 55, 161, 0.3)" stroke-width="1.5"></path>
        <path d="M862.08 96.96L835.18 187.79" stroke="rgba(48, 55, 161, 0.3)" stroke-width="1.5"></path>
        <path d="M862.08 96.96L949.52 48.63" stroke="rgba(48, 55, 161, 0.3)" stroke-width="1.5"></path>
        <path d="M862.08 96.96L1001.84 -39.38" stroke="rgba(48, 55, 161, 0.3)" stroke-width="1.5"></path>
        <path d="M862.08 96.96L1092.82 234.01" stroke="rgba(48, 55, 161, 0.3)" stroke-width="1.5"></path>
        <path d="M862.08 96.96L794.28 358.28" stroke="rgba(48, 55, 161, 0.3)" stroke-width="1.5"></path>
        <path d="M862.08 96.96L1139.15 84.87" stroke="rgba(48, 55, 161, 0.3)" stroke-width="1.5"></path>
        <path d="M835.18 187.79L835.18 187.79" stroke="rgba(48, 55, 161, 0.3)" stroke-width="1.5"></path>
        <path d="M835.18 187.79L794.28 358.28" stroke="rgba(48, 55, 161, 0.3)" stroke-width="1.5"></path>
        <path d="M794.28 358.28L794.28 358.28" stroke="rgba(48, 55, 161, 0.3)" stroke-width="1.5"></path>
        <path d="M794.28 358.28L808.18 517.75" stroke="rgba(48, 55, 161, 0.3)" stroke-width="1.5"></path>
        <path d="M794.28 358.28L966.04 384.36" stroke="rgba(48, 55, 161, 0.3)" stroke-width="1.5"></path>
        <path d="M808.18 517.75L808.18 517.75" stroke="rgba(48, 55, 161, 0.3)" stroke-width="1.5"></path>
        <path d="M808.18 517.75L972.77 535.45" stroke="rgba(48, 55, 161, 0.3)" stroke-width="1.5"></path>
        <path d="M808.18 517.75L689.46 386.83" stroke="rgba(48, 55, 161, 0.3)" stroke-width="1.5"></path>
        <path d="M808.18 517.75L857.55 693" stroke="rgba(48, 55, 161, 0.3)" stroke-width="1.5"></path>
        <path d="M808.18 517.75L670.91 665.04" stroke="rgba(48, 55, 161, 0.3)" stroke-width="1.5"></path>
        <path d="M857.55 693L857.55 693" stroke="rgba(48, 55, 161, 0.3)" stroke-width="1.5"></path>
        <path d="M1001.84 -39.38L1001.84 -39.38" stroke="rgba(48, 55, 161, 0.3)" stroke-width="1.5"></path>
        <path d="M1001.84 -39.38L949.52 48.63" stroke="rgba(48, 55, 161, 0.3)" stroke-width="1.5"></path>
        <path d="M1001.84 -39.38L1141.96 -78.83" stroke="rgba(48, 55, 161, 0.3)" stroke-width="1.5"></path>
        <path d="M1001.84 -39.38L1139.15 84.87" stroke="rgba(48, 55, 161, 0.3)" stroke-width="1.5"></path>
        <path d="M949.52 48.63L949.52 48.63" stroke="rgba(48, 55, 161, 0.3)" stroke-width="1.5"></path>
        <path d="M949.52 48.63L835.18 187.79" stroke="rgba(48, 55, 161, 0.3)" stroke-width="1.5"></path>
        <path d="M966.04 384.36L966.04 384.36" stroke="rgba(48, 55, 161, 0.3)" stroke-width="1.5"></path>
        <path d="M966.04 384.36L1094.89 401.01" stroke="rgba(48, 55, 161, 0.3)" stroke-width="1.5"></path>
        <path d="M966.04 384.36L972.77 535.45" stroke="rgba(48, 55, 161, 0.3)" stroke-width="1.5"></path>
        <path d="M966.04 384.36L1092.82 234.01" stroke="rgba(48, 55, 161, 0.3)" stroke-width="1.5"></path>
        <path d="M966.04 384.36L808.18 517.75" stroke="rgba(48, 55, 161, 0.3)" stroke-width="1.5"></path>
        <path d="M972.77 535.45L972.77 535.45" stroke="rgba(48, 55, 161, 0.3)" stroke-width="1.5"></path>
        <path d="M972.77 535.45L1148.4 501" stroke="rgba(48, 55, 161, 0.3)" stroke-width="1.5"></path>
        <path d="M972.77 535.45L1094.89 401.01" stroke="rgba(48, 55, 161, 0.3)" stroke-width="1.5"></path>
        <path d="M972.77 535.45L857.55 693" stroke="rgba(48, 55, 161, 0.3)" stroke-width="1.5"></path>
        <path d="M1141.96 -78.83L1141.96 -78.83" stroke="rgba(48, 55, 161, 0.3)" stroke-width="1.5"></path>
        <path d="M1141.96 -78.83L1256.22 -92.25" stroke="rgba(48, 55, 161, 0.3)" stroke-width="1.5"></path>
        <path d="M1139.15 84.87L1139.15 84.87" stroke="rgba(48, 55, 161, 0.3)" stroke-width="1.5"></path>
        <path d="M1139.15 84.87L1294.17 92.78" stroke="rgba(48, 55, 161, 0.3)" stroke-width="1.5"></path>
        <path d="M1139.15 84.87L1092.82 234.01" stroke="rgba(48, 55, 161, 0.3)" stroke-width="1.5"></path>
        <path d="M1092.82 234.01L1092.82 234.01" stroke="rgba(48, 55, 161, 0.3)" stroke-width="1.5"></path>
        <path d="M1094.89 401.01L1094.89 401.01" stroke="rgba(48, 55, 161, 0.3)" stroke-width="1.5"></path>
        <path d="M1094.89 401.01L1148.4 501" stroke="rgba(48, 55, 161, 0.3)" stroke-width="1.5"></path>
        <path d="M1148.4 501L1148.4 501" stroke="rgba(48, 55, 161, 0.3)" stroke-width="1.5"></path>
        <path d="M1148.4 501L1272.51 552.78" stroke="rgba(48, 55, 161, 0.3)" stroke-width="1.5"></path>
        <path d="M1148.4 501L1273.88 381.95" stroke="rgba(48, 55, 161, 0.3)" stroke-width="1.5"></path>
        <path d="M1110.86 685.7L1110.86 685.7" stroke="rgba(48, 55, 161, 0.3)" stroke-width="1.5"></path>
        <path d="M1110.86 685.7L1259.32 670.87" stroke="rgba(48, 55, 161, 0.3)" stroke-width="1.5"></path>
        <path d="M1110.86 685.7L1148.4 501" stroke="rgba(48, 55, 161, 0.3)" stroke-width="1.5"></path>
        <path d="M1110.86 685.7L972.77 535.45" stroke="rgba(48, 55, 161, 0.3)" stroke-width="1.5"></path>
        <path d="M1110.86 685.7L1272.51 552.78" stroke="rgba(48, 55, 161, 0.3)" stroke-width="1.5"></path>
        <path d="M1256.22 -92.25L1256.22 -92.25" stroke="rgba(48, 55, 161, 0.3)" stroke-width="1.5"></path>
        <path d="M1256.22 -92.25L1418.13 -85.7" stroke="rgba(48, 55, 161, 0.3)" stroke-width="1.5"></path>
        <path d="M1256.22 -92.25L1294.17 92.78" stroke="rgba(48, 55, 161, 0.3)" stroke-width="1.5"></path>
        <path d="M1256.22 -92.25L1139.15 84.87" stroke="rgba(48, 55, 161, 0.3)" stroke-width="1.5"></path>
        <path d="M1256.22 -92.25L1001.84 -39.38" stroke="rgba(48, 55, 161, 0.3)" stroke-width="1.5"></path>
        <path d="M1256.22 -92.25L1442.26 93.29" stroke="rgba(48, 55, 161, 0.3)" stroke-width="1.5"></path>
        <path d="M1294.17 92.78L1294.17 92.78" stroke="rgba(48, 55, 161, 0.3)" stroke-width="1.5"></path>
        <path d="M1294.17 92.78L1293.42 205.11" stroke="rgba(48, 55, 161, 0.3)" stroke-width="1.5"></path>
        <path d="M1294.17 92.78L1442.26 93.29" stroke="rgba(48, 55, 161, 0.3)" stroke-width="1.5"></path>
        <path d="M1294.17 92.78L1460.44 220.15" stroke="rgba(48, 55, 161, 0.3)" stroke-width="1.5"></path>
        <path d="M1293.42 205.11L1293.42 205.11" stroke="rgba(48, 55, 161, 0.3)" stroke-width="1.5"></path>
        <path d="M1293.42 205.11L1460.44 220.15" stroke="rgba(48, 55, 161, 0.3)" stroke-width="1.5"></path>
        <path d="M1293.42 205.11L1273.88 381.95" stroke="rgba(48, 55, 161, 0.3)" stroke-width="1.5"></path>
        <path d="M1273.88 381.95L1273.88 381.95" stroke="rgba(48, 55, 161, 0.3)" stroke-width="1.5"></path>
        <path d="M1273.88 381.95L1272.51 552.78" stroke="rgba(48, 55, 161, 0.3)" stroke-width="1.5"></path>
        <path d="M1273.88 381.95L1094.89 401.01" stroke="rgba(48, 55, 161, 0.3)" stroke-width="1.5"></path>
        <path d="M1273.88 381.95L1438.97 543.83" stroke="rgba(48, 55, 161, 0.3)" stroke-width="1.5"></path>
        <path d="M1272.51 552.78L1272.51 552.78" stroke="rgba(48, 55, 161, 0.3)" stroke-width="1.5"></path>
        <path d="M1272.51 552.78L1259.32 670.87" stroke="rgba(48, 55, 161, 0.3)" stroke-width="1.5"></path>
        <path d="M1259.32 670.87L1259.32 670.87" stroke="rgba(48, 55, 161, 0.3)" stroke-width="1.5"></path>
        <path d="M1418.13 -85.7L1418.13 -85.7" stroke="rgba(48, 55, 161, 0.3)" stroke-width="1.5"></path>
        <path d="M1418.13 -85.7L1563.3 -40.7" stroke="rgba(48, 55, 161, 0.3)" stroke-width="1.5"></path>
        <path d="M1418.13 -85.7L1442.26 93.29" stroke="rgba(48, 55, 161, 0.3)" stroke-width="1.5"></path>
        <path d="M1442.26 93.29L1442.26 93.29" stroke="rgba(48, 55, 161, 0.3)" stroke-width="1.5"></path>
        <path d="M1442.26 93.29L1460.44 220.15" stroke="rgba(48, 55, 161, 0.3)" stroke-width="1.5"></path>
        <path d="M1460.44 220.15L1460.44 220.15" stroke="rgba(48, 55, 161, 0.3)" stroke-width="1.5"></path>
        <path d="M1460.44 220.15L1586.94 245.86" stroke="rgba(48, 55, 161, 0.3)" stroke-width="1.5"></path>
        <path d="M1460.44 220.15L1543.02 377.41" stroke="rgba(48, 55, 161, 0.3)" stroke-width="1.5"></path>
        <path d="M1460.44 220.15L1598.97 41.38" stroke="rgba(48, 55, 161, 0.3)" stroke-width="1.5"></path>
        <path d="M1438.97 543.83L1438.97 543.83" stroke="rgba(48, 55, 161, 0.3)" stroke-width="1.5"></path>
        <path d="M1438.97 543.83L1410.79 642.93" stroke="rgba(48, 55, 161, 0.3)" stroke-width="1.5"></path>
        <path d="M1438.97 543.83L1545.75 558.3" stroke="rgba(48, 55, 161, 0.3)" stroke-width="1.5"></path>
        <path d="M1438.97 543.83L1272.51 552.78" stroke="rgba(48, 55, 161, 0.3)" stroke-width="1.5"></path>
        <path d="M1410.79 642.93L1410.79 642.93" stroke="rgba(48, 55, 161, 0.3)" stroke-width="1.5"></path>
        <path d="M1410.79 642.93L1259.32 670.87" stroke="rgba(48, 55, 161, 0.3)" stroke-width="1.5"></path>
        <path d="M1410.79 642.93L1545.75 558.3" stroke="rgba(48, 55, 161, 0.3)" stroke-width="1.5"></path>
        <path d="M1563.3 -40.7L1563.3 -40.7" stroke="rgba(48, 55, 161, 0.3)" stroke-width="1.5"></path>
        <path d="M1563.3 -40.7L1598.97 41.38" stroke="rgba(48, 55, 161, 0.3)" stroke-width="1.5"></path>
        <path d="M1598.97 41.38L1598.97 41.38" stroke="rgba(48, 55, 161, 0.3)" stroke-width="1.5"></path>
        <path d="M1598.97 41.38L1442.26 93.29" stroke="rgba(48, 55, 161, 0.3)" stroke-width="1.5"></path>
        <path d="M1598.97 41.38L1586.94 245.86" stroke="rgba(48, 55, 161, 0.3)" stroke-width="1.5"></path>
        <path d="M1598.97 41.38L1418.13 -85.7" stroke="rgba(48, 55, 161, 0.3)" stroke-width="1.5"></path>
        <path d="M1598.97 41.38L1294.17 92.78" stroke="rgba(48, 55, 161, 0.3)" stroke-width="1.5"></path>
        <path d="M1586.94 245.86L1586.94 245.86" stroke="rgba(48, 55, 161, 0.3)" stroke-width="1.5"></path>
        <path d="M1586.94 245.86L1543.02 377.41" stroke="rgba(48, 55, 161, 0.3)" stroke-width="1.5"></path>
        <path d="M1586.94 245.86L1442.26 93.29" stroke="rgba(48, 55, 161, 0.3)" stroke-width="1.5"></path>
        <path d="M1543.02 377.41L1543.02 377.41" stroke="rgba(48, 55, 161, 0.3)" stroke-width="1.5"></path>
        <path d="M1543.02 377.41L1545.75 558.3" stroke="rgba(48, 55, 161, 0.3)" stroke-width="1.5"></path>
        <path d="M1543.02 377.41L1438.97 543.83" stroke="rgba(48, 55, 161, 0.3)" stroke-width="1.5"></path>
        <path d="M1543.02 377.41L1273.88 381.95" stroke="rgba(48, 55, 161, 0.3)" stroke-width="1.5"></path>
        <path d="M1545.75 558.3L1545.75 558.3" stroke="rgba(48, 55, 161, 0.3)" stroke-width="1.5"></path>
        <path d="M1545.75 558.3L1568.93 682.13" stroke="rgba(48, 55, 161, 0.3)" stroke-width="1.5"></path>
        <path d="M1568.93 682.13L1568.93 682.13" stroke="rgba(48, 55, 161, 0.3)" stroke-width="1.5"></path>
        <path d="M1568.93 682.13L1410.79 642.93" stroke="rgba(48, 55, 161, 0.3)" stroke-width="1.5"></path>
        <path d="M1568.93 682.13L1438.97 543.83" stroke="rgba(48, 55, 161, 0.3)" stroke-width="1.5"></path>
        <path d="M1568.93 682.13L1543.02 377.41" stroke="rgba(48, 55, 161, 0.3)" stroke-width="1.5"></path>
        <circle r="5" cx="-97.47" cy="541.74" fill="rgba(48, 55, 161, 0.3)"></circle>
        <circle r="5" cx="-39.17" cy="650.62" fill="rgba(48, 55, 161, 0.3)"></circle>
        <circle r="5" cx="111.87" cy="404.11" fill="rgba(48, 55, 161, 0.3)"></circle>
        <circle r="5" cx="41.25" cy="555.4" fill="rgba(48, 55, 161, 0.3)"></circle>
        <circle r="5" cx="81.04" cy="684.55" fill="rgba(48, 55, 161, 0.3)"></circle>
        <circle r="5" cx="195.48" cy="399.54" fill="rgba(48, 55, 161, 0.3)"></circle>
        <circle r="5" cx="260.7" cy="549.4" fill="rgba(48, 55, 161, 0.3)"></circle>
        <circle r="5" cx="259.91" cy="643.7" fill="rgba(48, 55, 161, 0.3)"></circle>
        <circle r="5" cx="401.76" cy="350.18" fill="rgba(48, 55, 161, 0.3)"></circle>
        <circle r="5" cx="386.6" cy="535.78" fill="rgba(48, 55, 161, 0.3)"></circle>
        <circle r="5" cx="548.81" cy="380.86" fill="rgba(48, 55, 161, 0.3)"></circle>
        <circle r="5" cx="492.49" cy="528.81" fill="rgba(48, 55, 161, 0.3)"></circle>
        <circle r="5" cx="558.14" cy="700.75" fill="rgba(48, 55, 161, 0.3)"></circle>
        <circle r="5" cx="689.46" cy="386.83" fill="rgba(48, 55, 161, 0.3)"></circle>
        <circle r="5" cx="678.07" cy="561.71" fill="rgba(48, 55, 161, 0.3)"></circle>
        <circle r="5" cx="670.91" cy="665.04" fill="rgba(48, 55, 161, 0.3)"></circle>
        <circle r="5" cx="862.08" cy="96.96" fill="rgba(48, 55, 161, 0.3)"></circle>
        <circle r="5" cx="835.18" cy="187.79" fill="rgba(48, 55, 161, 0.3)"></circle>
        <circle r="5" cx="794.28" cy="358.28" fill="rgba(48, 55, 161, 0.3)"></circle>
        <circle r="5" cx="808.18" cy="517.75" fill="rgba(48, 55, 161, 0.3)"></circle>
        <circle r="5" cx="857.55" cy="693" fill="rgba(48, 55, 161, 0.3)"></circle>
        <circle r="5" cx="1001.84" cy="-39.38" fill="rgba(48, 55, 161, 0.3)"></circle>
        <circle r="5" cx="949.52" cy="48.63" fill="rgba(48, 55, 161, 0.3)"></circle>
        <circle r="5" cx="966.04" cy="384.36" fill="rgba(48, 55, 161, 0.3)"></circle>
        <circle r="5" cx="972.77" cy="535.45" fill="rgba(48, 55, 161, 0.3)"></circle>
        <circle r="5" cx="1141.96" cy="-78.83" fill="rgba(48, 55, 161, 0.3)"></circle>
        <circle r="5" cx="1139.15" cy="84.87" fill="rgba(48, 55, 161, 0.3)"></circle>
        <circle r="5" cx="1092.82" cy="234.01" fill="rgba(48, 55, 161, 0.3)"></circle>
        <circle r="5" cx="1094.89" cy="401.01" fill="rgba(48, 55, 161, 0.3)"></circle>
        <circle r="5" cx="1148.4" cy="501" fill="rgba(48, 55, 161, 0.3)"></circle>
        <circle r="5" cx="1110.86" cy="685.7" fill="rgba(48, 55, 161, 0.3)"></circle>
        <circle r="5" cx="1256.22" cy="-92.25" fill="rgba(48, 55, 161, 0.3)"></circle>
        <circle r="5" cx="1294.17" cy="92.78" fill="rgba(48, 55, 161, 0.3)"></circle>
        <circle r="5" cx="1293.42" cy="205.11" fill="rgba(48, 55, 161, 0.3)"></circle>
        <circle r="5" cx="1273.88" cy="381.95" fill="rgba(48, 55, 161, 0.3)"></circle>
        <circle r="5" cx="1272.51" cy="552.78" fill="rgba(48, 55, 161, 0.3)"></circle>
        <circle r="5" cx="1259.32" cy="670.87" fill="rgba(48, 55, 161, 0.3)"></circle>
        <circle r="5" cx="1418.13" cy="-85.7" fill="rgba(48, 55, 161, 0.3)"></circle>
        <circle r="5" cx="1442.26" cy="93.29" fill="rgba(48, 55, 161, 0.3)"></circle>
        <circle r="5" cx="1460.44" cy="220.15" fill="rgba(48, 55, 161, 0.3)"></circle>
        <circle r="5" cx="1438.97" cy="543.83" fill="rgba(48, 55, 161, 0.3)"></circle>
        <circle r="5" cx="1410.79" cy="642.93" fill="rgba(48, 55, 161, 0.3)"></circle>
        <circle r="5" cx="1563.3" cy="-40.7" fill="rgba(48, 55, 161, 0.3)"></circle>
        <circle r="5" cx="1598.97" cy="41.38" fill="rgba(48, 55, 161, 0.3)"></circle>
        <circle r="5" cx="1586.94" cy="245.86" fill="rgba(48, 55, 161, 0.3)"></circle>
        <circle r="5" cx="1543.02" cy="377.41" fill="rgba(48, 55, 161, 0.3)"></circle>
        <circle r="5" cx="1545.75" cy="558.3" fill="rgba(48, 55, 161, 0.3)"></circle>
        <circle r="5" cx="1568.93" cy="682.13" fill="rgba(48, 55, 161, 0.3)"></circle>
        <path d="M552.79 673.43L552.79 673.43" stroke="hsl(0, 0%, 100%)" stroke-width="1.5"></path>
        <path d="M552.79 673.43L509.27 559.9" stroke="hsl(0, 0%, 100%)" stroke-width="1.5"></path>
        <path d="M552.79 673.43L701.98 684.06" stroke="hsl(0, 0%, 100%)" stroke-width="1.5"></path>
        <path d="M701.98 684.06L701.98 684.06" stroke="hsl(0, 0%, 100%)" stroke-width="1.5"></path>
        <path d="M701.98 684.06L795 656.17" stroke="hsl(0, 0%, 100%)" stroke-width="1.5"></path>
        <path d="M795 656.17L795 656.17" stroke="hsl(0, 0%, 100%)" stroke-width="1.5"></path>
        <path d="M795 656.17L689 558.25" stroke="hsl(0, 0%, 100%)" stroke-width="1.5"></path>
        <path d="M992.16 231.58L992.16 231.58" stroke="hsl(0, 0%, 100%)" stroke-width="1.5"></path>
        <path d="M992.16 231.58L978.89 352.91" stroke="hsl(0, 0%, 100%)" stroke-width="1.5"></path>
        <path d="M992.16 231.58L1135.32 193.31" stroke="hsl(0, 0%, 100%)" stroke-width="1.5"></path>
        <path d="M992.16 231.58L811.53 368.24" stroke="hsl(0, 0%, 100%)" stroke-width="1.5"></path>
        <path d="M989.63 561.21L989.63 561.21" stroke="hsl(0, 0%, 100%)" stroke-width="1.5"></path>
        <path d="M989.63 561.21L1105.75 521.52" stroke="hsl(0, 0%, 100%)" stroke-width="1.5"></path>
        <path d="M989.63 561.21L946.62 700.49" stroke="hsl(0, 0%, 100%)" stroke-width="1.5"></path>
        <path d="M989.63 561.21L819.35 499.38" stroke="hsl(0, 0%, 100%)" stroke-width="1.5"></path>
        <path d="M989.63 561.21L1137.55 681.01" stroke="hsl(0, 0%, 100%)" stroke-width="1.5"></path>
        <path d="M1135.32 193.31L1135.32 193.31" stroke="hsl(0, 0%, 100%)" stroke-width="1.5"></path>
        <path d="M1135.32 193.31L1242.92 210.75" stroke="hsl(0, 0%, 100%)" stroke-width="1.5"></path>
        <path d="M1135.32 193.31L1296.04 67.28" stroke="hsl(0, 0%, 100%)" stroke-width="1.5"></path>
        <path d="M1453.05 527.98L1453.05 527.98" stroke="hsl(0, 0%, 100%)" stroke-width="1.5"></path>
        <path d="M1453.05 527.98L1545.98 554.74" stroke="hsl(0, 0%, 100%)" stroke-width="1.5"></path>
        <path d="M1586.34 -94.96L1586.34 -94.96" stroke="hsl(0, 0%, 100%)" stroke-width="1.5"></path>
        <path d="M1586.34 -94.96L1561.22 38.07" stroke="hsl(0, 0%, 100%)" stroke-width="1.5"></path>
        <path d="M1586.34 -94.96L1396 -54.47" stroke="hsl(0, 0%, 100%)" stroke-width="1.5"></path>
        <path d="M1582.66 381.26L1582.66 381.26" stroke="hsl(0, 0%, 100%)" stroke-width="1.5"></path>
        <path d="M1582.66 381.26L1597.65 218.7" stroke="hsl(0, 0%, 100%)" stroke-width="1.5"></path>
        <path d="M1582.66 381.26L1545.98 554.74" stroke="hsl(0, 0%, 100%)" stroke-width="1.5"></path>
        <path d="M-95.49 497.42L-95.49 497.42" stroke="hsl(0, 0%, 100%)" stroke-width="1.5"></path>
        <path d="M-95.49 497.42L-70.57 646.03" stroke="hsl(0, 0%, 100%)" stroke-width="1.5"></path>
        <path d="M-95.49 497.42L86.94 506.16" stroke="hsl(0, 0%, 100%)" stroke-width="1.5"></path>
        <path d="M-95.49 497.42L85.68 706.91" stroke="hsl(0, 0%, 100%)" stroke-width="1.5"></path>
        <path d="M-95.49 497.42L214.73 548.14" stroke="hsl(0, 0%, 100%)" stroke-width="1.5"></path>
        <path d="M-95.49 497.42L199.53 663.09" stroke="hsl(0, 0%, 100%)" stroke-width="1.5"></path>
        <path d="M-70.57 646.03L-70.57 646.03" stroke="hsl(0, 0%, 100%)" stroke-width="1.5"></path>
        <path d="M-70.57 646.03L85.68 706.91" stroke="hsl(0, 0%, 100%)" stroke-width="1.5"></path>
        <path d="M-70.57 646.03L86.94 506.16" stroke="hsl(0, 0%, 100%)" stroke-width="1.5"></path>
        <path d="M86.94 506.16L86.94 506.16" stroke="hsl(0, 0%, 100%)" stroke-width="1.5"></path>
        <path d="M86.94 506.16L214.73 548.14" stroke="hsl(0, 0%, 100%)" stroke-width="1.5"></path>
        <path d="M86.94 506.16L199.53 663.09" stroke="hsl(0, 0%, 100%)" stroke-width="1.5"></path>
        <path d="M86.94 506.16L85.68 706.91" stroke="hsl(0, 0%, 100%)" stroke-width="1.5"></path>
        <path d="M85.68 706.91L85.68 706.91" stroke="hsl(0, 0%, 100%)" stroke-width="1.5"></path>
        <path d="M85.68 706.91L199.53 663.09" stroke="hsl(0, 0%, 100%)" stroke-width="1.5"></path>
        <path d="M214.73 548.14L214.73 548.14" stroke="hsl(0, 0%, 100%)" stroke-width="1.5"></path>
        <path d="M214.73 548.14L199.53 663.09" stroke="hsl(0, 0%, 100%)" stroke-width="1.5"></path>
        <path d="M214.73 548.14L405.3 552.5" stroke="hsl(0, 0%, 100%)" stroke-width="1.5"></path>
        <path d="M214.73 548.14L342.84 692.8" stroke="hsl(0, 0%, 100%)" stroke-width="1.5"></path>
        <path d="M214.73 548.14L85.68 706.91" stroke="hsl(0, 0%, 100%)" stroke-width="1.5"></path>
        <path d="M199.53 663.09L199.53 663.09" stroke="hsl(0, 0%, 100%)" stroke-width="1.5"></path>
        <path d="M405.3 552.5L405.3 552.5" stroke="hsl(0, 0%, 100%)" stroke-width="1.5"></path>
        <path d="M405.3 552.5L509.27 559.9" stroke="hsl(0, 0%, 100%)" stroke-width="1.5"></path>
        <path d="M405.3 552.5L342.84 692.8" stroke="hsl(0, 0%, 100%)" stroke-width="1.5"></path>
        <path d="M405.3 552.5L552.79 673.43" stroke="hsl(0, 0%, 100%)" stroke-width="1.5"></path>
        <path d="M405.3 552.5L199.53 663.09" stroke="hsl(0, 0%, 100%)" stroke-width="1.5"></path>
        <path d="M342.84 692.8L342.84 692.8" stroke="hsl(0, 0%, 100%)" stroke-width="1.5"></path>
        <path d="M342.84 692.8L199.53 663.09" stroke="hsl(0, 0%, 100%)" stroke-width="1.5"></path>
        <path d="M509.27 559.9L509.27 559.9" stroke="hsl(0, 0%, 100%)" stroke-width="1.5"></path>
        <path d="M509.27 559.9L689 558.25" stroke="hsl(0, 0%, 100%)" stroke-width="1.5"></path>
        <path d="M509.27 559.9L342.84 692.8" stroke="hsl(0, 0%, 100%)" stroke-width="1.5"></path>
        <path d="M509.27 559.9L701.98 684.06" stroke="hsl(0, 0%, 100%)" stroke-width="1.5"></path>
        <path d="M710.12 394.33L710.12 394.33" stroke="hsl(0, 0%, 100%)" stroke-width="1.5"></path>
        <path d="M710.12 394.33L811.53 368.24" stroke="hsl(0, 0%, 100%)" stroke-width="1.5"></path>
        <path d="M710.12 394.33L819.35 499.38" stroke="hsl(0, 0%, 100%)" stroke-width="1.5"></path>
        <path d="M689 558.25L689 558.25" stroke="hsl(0, 0%, 100%)" stroke-width="1.5"></path>
        <path d="M689 558.25L701.98 684.06" stroke="hsl(0, 0%, 100%)" stroke-width="1.5"></path>
        <path d="M689 558.25L819.35 499.38" stroke="hsl(0, 0%, 100%)" stroke-width="1.5"></path>
        <path d="M811.53 368.24L811.53 368.24" stroke="hsl(0, 0%, 100%)" stroke-width="1.5"></path>
        <path d="M811.53 368.24L819.35 499.38" stroke="hsl(0, 0%, 100%)" stroke-width="1.5"></path>
        <path d="M819.35 499.38L819.35 499.38" stroke="hsl(0, 0%, 100%)" stroke-width="1.5"></path>
        <path d="M978.89 352.91L978.89 352.91" stroke="hsl(0, 0%, 100%)" stroke-width="1.5"></path>
        <path d="M978.89 352.91L811.53 368.24" stroke="hsl(0, 0%, 100%)" stroke-width="1.5"></path>
        <path d="M978.89 352.91L1146.97 403.85" stroke="hsl(0, 0%, 100%)" stroke-width="1.5"></path>
        <path d="M978.89 352.91L989.63 561.21" stroke="hsl(0, 0%, 100%)" stroke-width="1.5"></path>
        <path d="M978.89 352.91L1105.75 521.52" stroke="hsl(0, 0%, 100%)" stroke-width="1.5"></path>
        <path d="M978.89 352.91L819.35 499.38" stroke="hsl(0, 0%, 100%)" stroke-width="1.5"></path>
        <path d="M946.62 700.49L946.62 700.49" stroke="hsl(0, 0%, 100%)" stroke-width="1.5"></path>
        <path d="M946.62 700.49L795 656.17" stroke="hsl(0, 0%, 100%)" stroke-width="1.5"></path>
        <path d="M1146.97 403.85L1146.97 403.85" stroke="hsl(0, 0%, 100%)" stroke-width="1.5"></path>
        <path d="M1146.97 403.85L1262.7 372.12" stroke="hsl(0, 0%, 100%)" stroke-width="1.5"></path>
        <path d="M1146.97 403.85L1105.75 521.52" stroke="hsl(0, 0%, 100%)" stroke-width="1.5"></path>
        <path d="M1146.97 403.85L1260.92 497.5" stroke="hsl(0, 0%, 100%)" stroke-width="1.5"></path>
        <path d="M1146.97 403.85L1135.32 193.31" stroke="hsl(0, 0%, 100%)" stroke-width="1.5"></path>
        <path d="M1105.75 521.52L1105.75 521.52" stroke="hsl(0, 0%, 100%)" stroke-width="1.5"></path>
        <path d="M1105.75 521.52L1260.92 497.5" stroke="hsl(0, 0%, 100%)" stroke-width="1.5"></path>
        <path d="M1105.75 521.52L1137.55 681.01" stroke="hsl(0, 0%, 100%)" stroke-width="1.5"></path>
        <path d="M1137.55 681.01L1137.55 681.01" stroke="hsl(0, 0%, 100%)" stroke-width="1.5"></path>
        <path d="M1137.55 681.01L1275.09 661.95" stroke="hsl(0, 0%, 100%)" stroke-width="1.5"></path>
        <path d="M1137.55 681.01L946.62 700.49" stroke="hsl(0, 0%, 100%)" stroke-width="1.5"></path>
        <path d="M1137.55 681.01L1260.92 497.5" stroke="hsl(0, 0%, 100%)" stroke-width="1.5"></path>
        <path d="M1303.61 -79.18L1303.61 -79.18" stroke="hsl(0, 0%, 100%)" stroke-width="1.5"></path>
        <path d="M1303.61 -79.18L1396 -54.47" stroke="hsl(0, 0%, 100%)" stroke-width="1.5"></path>
        <path d="M1303.61 -79.18L1296.04 67.28" stroke="hsl(0, 0%, 100%)" stroke-width="1.5"></path>
        <path d="M1296.04 67.28L1296.04 67.28" stroke="hsl(0, 0%, 100%)" stroke-width="1.5"></path>
        <path d="M1296.04 67.28L1407.64 111.93" stroke="hsl(0, 0%, 100%)" stroke-width="1.5"></path>
        <path d="M1296.04 67.28L1242.92 210.75" stroke="hsl(0, 0%, 100%)" stroke-width="1.5"></path>
        <path d="M1296.04 67.28L1396 -54.47" stroke="hsl(0, 0%, 100%)" stroke-width="1.5"></path>
        <path d="M1242.92 210.75L1242.92 210.75" stroke="hsl(0, 0%, 100%)" stroke-width="1.5"></path>
        <path d="M1242.92 210.75L1394.67 260.2" stroke="hsl(0, 0%, 100%)" stroke-width="1.5"></path>
        <path d="M1242.92 210.75L1262.7 372.12" stroke="hsl(0, 0%, 100%)" stroke-width="1.5"></path>
        <path d="M1262.7 372.12L1262.7 372.12" stroke="hsl(0, 0%, 100%)" stroke-width="1.5"></path>
        <path d="M1262.7 372.12L1260.92 497.5" stroke="hsl(0, 0%, 100%)" stroke-width="1.5"></path>
        <path d="M1262.7 372.12L1400.22 346.71" stroke="hsl(0, 0%, 100%)" stroke-width="1.5"></path>
        <path d="M1262.7 372.12L1394.67 260.2" stroke="hsl(0, 0%, 100%)" stroke-width="1.5"></path>
        <path d="M1262.7 372.12L1105.75 521.52" stroke="hsl(0, 0%, 100%)" stroke-width="1.5"></path>
        <path d="M1260.92 497.5L1260.92 497.5" stroke="hsl(0, 0%, 100%)" stroke-width="1.5"></path>
        <path d="M1260.92 497.5L1275.09 661.95" stroke="hsl(0, 0%, 100%)" stroke-width="1.5"></path>
        <path d="M1275.09 661.95L1275.09 661.95" stroke="hsl(0, 0%, 100%)" stroke-width="1.5"></path>
        <path d="M1275.09 661.95L1462.41 684.62" stroke="hsl(0, 0%, 100%)" stroke-width="1.5"></path>
        <path d="M1275.09 661.95L1105.75 521.52" stroke="hsl(0, 0%, 100%)" stroke-width="1.5"></path>
        <path d="M1396 -54.47L1396 -54.47" stroke="hsl(0, 0%, 100%)" stroke-width="1.5"></path>
        <path d="M1396 -54.47L1407.64 111.93" stroke="hsl(0, 0%, 100%)" stroke-width="1.5"></path>
        <path d="M1396 -54.47L1561.22 38.07" stroke="hsl(0, 0%, 100%)" stroke-width="1.5"></path>
        <path d="M1396 -54.47L1242.92 210.75" stroke="hsl(0, 0%, 100%)" stroke-width="1.5"></path>
        <path d="M1407.64 111.93L1407.64 111.93" stroke="hsl(0, 0%, 100%)" stroke-width="1.5"></path>
        <path d="M1407.64 111.93L1394.67 260.2" stroke="hsl(0, 0%, 100%)" stroke-width="1.5"></path>
        <path d="M1394.67 260.2L1394.67 260.2" stroke="hsl(0, 0%, 100%)" stroke-width="1.5"></path>
        <path d="M1394.67 260.2L1400.22 346.71" stroke="hsl(0, 0%, 100%)" stroke-width="1.5"></path>
        <path d="M1400.22 346.71L1400.22 346.71" stroke="hsl(0, 0%, 100%)" stroke-width="1.5"></path>
        <path d="M1462.41 684.62L1462.41 684.62" stroke="hsl(0, 0%, 100%)" stroke-width="1.5"></path>
        <path d="M1462.41 684.62L1552.96 692.54" stroke="hsl(0, 0%, 100%)" stroke-width="1.5"></path>
        <path d="M1462.41 684.62L1545.98 554.74" stroke="hsl(0, 0%, 100%)" stroke-width="1.5"></path>
        <path d="M1462.41 684.62L1453.05 527.98" stroke="hsl(0, 0%, 100%)" stroke-width="1.5"></path>
        <path d="M1462.41 684.62L1260.92 497.5" stroke="hsl(0, 0%, 100%)" stroke-width="1.5"></path>
        <path d="M1462.41 684.62L1137.55 681.01" stroke="hsl(0, 0%, 100%)" stroke-width="1.5"></path>
        <path d="M1561.22 38.07L1561.22 38.07" stroke="hsl(0, 0%, 100%)" stroke-width="1.5"></path>
        <path d="M1561.22 38.07L1407.64 111.93" stroke="hsl(0, 0%, 100%)" stroke-width="1.5"></path>
        <path d="M1561.22 38.07L1597.65 218.7" stroke="hsl(0, 0%, 100%)" stroke-width="1.5"></path>
        <path d="M1561.22 38.07L1296.04 67.28" stroke="hsl(0, 0%, 100%)" stroke-width="1.5"></path>
        <path d="M1561.22 38.07L1394.67 260.2" stroke="hsl(0, 0%, 100%)" stroke-width="1.5"></path>
        <path d="M1597.65 218.7L1597.65 218.7" stroke="hsl(0, 0%, 100%)" stroke-width="1.5"></path>
        <path d="M1597.65 218.7L1394.67 260.2" stroke="hsl(0, 0%, 100%)" stroke-width="1.5"></path>
        <path d="M1597.65 218.7L1407.64 111.93" stroke="hsl(0, 0%, 100%)" stroke-width="1.5"></path>
        <path d="M1597.65 218.7L1400.22 346.71" stroke="hsl(0, 0%, 100%)" stroke-width="1.5"></path>
        <path d="M1545.98 554.74L1545.98 554.74" stroke="hsl(0, 0%, 100%)" stroke-width="1.5"></path>
        <path d="M1545.98 554.74L1552.96 692.54" stroke="hsl(0, 0%, 100%)" stroke-width="1.5"></path>
        <path d="M1552.96 692.54L1552.96 692.54" stroke="hsl(0, 0%, 100%)" stroke-width="1.5"></path>
        <path d="M1552.96 692.54L1453.05 527.98" stroke="hsl(0, 0%, 100%)" stroke-width="1.5"></path>
        <path d="M1552.96 692.54L1275.09 661.95" stroke="hsl(0, 0%, 100%)" stroke-width="1.5"></path>
        <path d="M1552.96 692.54L1582.66 381.26" stroke="hsl(0, 0%, 100%)" stroke-width="1.5"></path>
        <circle r="25" cx="552.79" cy="673.43" fill="url(&quot;#SvgjsRadialGradient1146&quot;)"></circle>
        <circle r="25" cx="701.98" cy="684.06" fill="url(&quot;#SvgjsRadialGradient1146&quot;)"></circle>
        <circle r="25" cx="795" cy="656.17" fill="url(&quot;#SvgjsRadialGradient1146&quot;)"></circle>
        <circle r="25" cx="992.16" cy="231.58" fill="url(&quot;#SvgjsRadialGradient1146&quot;)"></circle>
        <circle r="25" cx="989.63" cy="561.21" fill="url(&quot;#SvgjsRadialGradient1146&quot;)"></circle>
        <circle r="25" cx="1135.32" cy="193.31" fill="url(&quot;#SvgjsRadialGradient1146&quot;)"></circle>
        <circle r="25" cx="1453.05" cy="527.98" fill="url(&quot;#SvgjsRadialGradient1146&quot;)"></circle>
        <circle r="25" cx="1586.34" cy="-94.96" fill="url(&quot;#SvgjsRadialGradient1146&quot;)"></circle>
        <circle r="25" cx="1582.66" cy="381.26" fill="url(&quot;#SvgjsRadialGradient1146&quot;)"></circle>
        <circle r="5" cx="-95.49" cy="497.42" fill="#ffffff"></circle>
        <circle r="5" cx="-70.57" cy="646.03" fill="#ffffff"></circle>
        <circle r="5" cx="86.94" cy="506.16" fill="#ffffff"></circle>
        <circle r="5" cx="85.68" cy="706.91" fill="#ffffff"></circle>
        <circle r="5" cx="214.73" cy="548.14" fill="#ffffff"></circle>
        <circle r="5" cx="199.53" cy="663.09" fill="#ffffff"></circle>
        <circle r="5" cx="405.3" cy="552.5" fill="#ffffff"></circle>
        <circle r="5" cx="342.84" cy="692.8" fill="#ffffff"></circle>
        <circle r="5" cx="509.27" cy="559.9" fill="#ffffff"></circle>
        <circle r="5" cx="710.12" cy="394.33" fill="#ffffff"></circle>
        <circle r="5" cx="689" cy="558.25" fill="#ffffff"></circle>
        <circle r="5" cx="811.53" cy="368.24" fill="#ffffff"></circle>
        <circle r="5" cx="819.35" cy="499.38" fill="#ffffff"></circle>
        <circle r="5" cx="978.89" cy="352.91" fill="#ffffff"></circle>
        <circle r="5" cx="946.62" cy="700.49" fill="#ffffff"></circle>
        <circle r="5" cx="1146.97" cy="403.85" fill="#ffffff"></circle>
        <circle r="5" cx="1105.75" cy="521.52" fill="#ffffff"></circle>
        <circle r="5" cx="1137.55" cy="681.01" fill="#ffffff"></circle>
        <circle r="5" cx="1303.61" cy="-79.18" fill="#ffffff"></circle>
        <circle r="5" cx="1296.04" cy="67.28" fill="#ffffff"></circle>
        <circle r="5" cx="1242.92" cy="210.75" fill="#ffffff"></circle>
        <circle r="5" cx="1262.7" cy="372.12" fill="#ffffff"></circle>
        <circle r="5" cx="1260.92" cy="497.5" fill="#ffffff"></circle>
        <circle r="5" cx="1275.09" cy="661.95" fill="#ffffff"></circle>
        <circle r="5" cx="1396" cy="-54.47" fill="#ffffff"></circle>
        <circle r="5" cx="1407.64" cy="111.93" fill="#ffffff"></circle>
        <circle r="5" cx="1394.67" cy="260.2" fill="#ffffff"></circle>
        <circle r="5" cx="1400.22" cy="346.71" fill="#ffffff"></circle>
        <circle r="5" cx="1462.41" cy="684.62" fill="#ffffff"></circle>
        <circle r="5" cx="1561.22" cy="38.07" fill="#ffffff"></circle>
        <circle r="5" cx="1597.65" cy="218.7" fill="#ffffff"></circle>
        <circle r="5" cx="1545.98" cy="554.74" fill="#ffffff"></circle>
        <circle r="5" cx="1552.96" cy="692.54" fill="#ffffff"></circle>
    </g>
    <defs>
        <mask id="SvgjsMask1144">
            <rect width="1440" height="560" fill="#ffffff"></rect>
        </mask>
        <linearGradient x1="84.72%" y1="139.29%" x2="15.28%" y2="-39.29%" gradientUnits="userSpaceOnUse" id="SvgjsLinearGradient1145">
            <stop stop-color="rgba(11, 70, 149, 0.51)" offset="0.38"></stop>
            <stop stop-color="rgba(172, 178, 186, 0.51)" offset="1"></stop>
        </linearGradient>
        <radialGradient id="SvgjsRadialGradient1146">
            <stop stop-color="#ffffff" offset="0.1"></stop>
            <stop stop-color="rgba(255, 255, 255, 1)" offset="0.2"></stop>
            <stop stop-color="rgba(255, 255, 255, 0)" offset="1"></stop>
        </radialGradient>
    </defs>
</svg>